<?xml version="1.0" encoding="utf-8"?>
<!-- Generator: Adobe Illustrator 16.0.3, SVG Export Plug-In . SVG Version: 6.00 Build 0)  -->
<!DOCTYPE svg PUBLIC "-//W3C//DTD SVG 1.1//EN" "http://www.w3.org/Graphics/SVG/1.1/DTD/svg11.dtd">
<svg version="1.1" id="Layer_1" xmlns="http://www.w3.org/2000/svg" xmlns:xlink="http://www.w3.org/1999/xlink" x="0px" y="0px"
	 width="477px" height="57px" viewBox="0 0 477 57" enable-background="new 0 0 477 57" xml:space="preserve">
<g>
	<g>
		<polygon fill-rule="evenodd" clip-rule="evenodd" fill="#FFFFFF" points="203.801,29.905 226.108,29.905 226.108,24.38 
			203.801,24.38 203.801,6.876 229.39,6.876 229.39,1.419 196.033,1.419 196.033,55.702 229.39,55.702 233.052,50.179 
			203.801,50.179 		"/>
		<polygon fill-rule="evenodd" clip-rule="evenodd" fill="#FFFFFF" points="258.248,1.452 250.58,1.452 250.58,55.702 
			284.008,55.702 287.492,50.245 258.248,50.245 		"/>
		<rect x="301.227" y="1.493" fill-rule="evenodd" clip-rule="evenodd" fill="#FFFFFF" width="7.664" height="54.211"/>
		<path fill-rule="evenodd" clip-rule="evenodd" fill="#FFFFFF" d="M453.646,1.452h-7.357l-24.17,54.25h7.77l18.439-43.58
			c0.412-0.931,0.586-1.309,1.102-2.828c0.592,1.758,0.689,1.964,1.004,2.828l9.117,22.689h-17.338l-2.277,5.453h21.787
			l6.459,15.438h8.529L453.646,1.452z"/>
		<polygon fill-rule="evenodd" clip-rule="evenodd" fill="#FFFFFF" points="361.262,32.429 361.262,32.429 353.428,21.996 
			338.061,1.49 328.91,1.49 348.867,27.868 327.664,55.737 336.262,55.737 353.182,33.499 369.721,55.737 378.668,55.737 		"/>
		<polygon fill-rule="evenodd" clip-rule="evenodd" fill="#FFFFFF" points="359.604,24.933 377.559,1.491 369.139,1.491 
			355.426,19.306 		"/>
		<rect x="397.682" y="1.493" fill-rule="evenodd" clip-rule="evenodd" fill="#FFFFFF" width="7.668" height="54.211"/>
		<polygon fill-rule="evenodd" clip-rule="evenodd" fill="#FFFFFF" points="203.801,29.905 226.108,29.905 226.108,24.38 
			203.801,24.38 203.801,6.876 229.39,6.876 229.39,1.419 196.033,1.419 196.033,55.702 229.39,55.702 233.052,50.179 
			203.801,50.179 		"/>
		<polygon fill-rule="evenodd" clip-rule="evenodd" fill="#FFFFFF" points="258.248,1.452 250.58,1.452 250.58,55.702 
			284.008,55.702 287.492,50.245 258.248,50.245 		"/>
		<rect x="301.227" y="1.493" fill-rule="evenodd" clip-rule="evenodd" fill="#FFFFFF" width="7.664" height="54.211"/>
		<path fill-rule="evenodd" clip-rule="evenodd" fill="#FFFFFF" d="M453.646,1.452h-7.357l-24.17,54.25h7.77l18.439-43.58
			c0.412-0.931,0.586-1.309,1.102-2.828c0.592,1.758,0.689,1.964,1.004,2.828l9.117,22.689h-17.338l-2.277,5.453h21.787
			l6.459,15.438h8.529L453.646,1.452z"/>
		<polygon fill-rule="evenodd" clip-rule="evenodd" fill="#FFFFFF" points="361.262,32.429 361.262,32.429 353.428,21.996 
			338.061,1.49 328.91,1.49 348.867,27.868 327.664,55.737 336.262,55.737 353.182,33.499 369.721,55.737 378.668,55.737 		"/>
		<polygon fill-rule="evenodd" clip-rule="evenodd" fill="#FFFFFF" points="359.604,24.933 377.559,1.491 369.139,1.491 
			355.426,19.306 		"/>
		<rect x="397.682" y="1.493" fill-rule="evenodd" clip-rule="evenodd" fill="#FFFFFF" width="7.668" height="54.211"/>
	</g>
	<g>
		<path fill="#FFFFFF" d="M63.071,35.435l10.21-19.583h0.153l2.056,19.583H63.071z M83.34,1.298H69.015L58.38,19.506L37.239,55.704
			h14.858l5.487-9.754H76.71l1.296,9.754h14.25L83.34,1.298z"/>
		<polygon fill="#FFFFFF" points="133.631,1.298 91.563,1.298 88.507,13.489 103.86,13.489 94.544,55.704 108.717,55.704 
			118.033,13.489 124.658,13.489 127.093,13.489 		"/>
		<path fill="#FFFFFF" d="M148.011,11.812c2.515,0,4.42,0.458,5.715,1.449c1.219,0.914,1.904,2.361,1.904,4.418h14.175
			c0.38-13.258-9.449-17.526-21.032-17.526c-4.557,0-9.162,0.924-12.984,2.896l-9.001,16.6c0.806,6.689,5.935,9.891,12.156,12.129
			c5.639,1.979,13.868,2.59,13.868,7.998c0,2.973-2.362,5.41-8.077,5.41c-6.707,0-9.982-1.904-9.982-7.77h-14.172
			c-0.153,12.875,8.916,19.43,21.869,19.43c15.925,0,24.536-8.154,24.536-17.832c0-10.668-8.763-14.554-16.231-16.611
			c-7.62-2.058-9.905-2.439-9.905-5.714C140.848,13.261,144.504,11.812,148.011,11.812"/>
		<path fill="#FFFFFF" d="M44.709,44.89l-1.508,2.801C43.805,46.8,44.308,45.864,44.709,44.89"/>
		<path fill="#FFFFFF" d="M46.191,34.868c-1.962-7.584-9.316-10.7-15.724-12.464c-7.619-2.059-9.905-2.439-9.905-5.715
			c0-3.429,3.657-4.878,7.163-4.878c2.515,0,4.42,0.459,5.714,1.449c1.22,0.915,1.905,2.363,1.905,4.42h14.173
			c0.38-13.258-9.449-17.526-21.031-17.526c-10.897,0-22.098,5.259-22.098,17.603c0,8,5.486,11.583,12.269,14.022
			c5.637,1.979,13.867,2.59,13.867,8c0,2.971-2.361,5.408-8.077,5.408c-6.704,0-9.981-1.904-9.981-7.77H0.292
			C0.141,50.292,9.208,56.845,22.162,56.845c4.936,0,9.161-0.787,12.652-2.156l7.649-13.096L46.191,34.868z"/>
		<path fill="#FFFFFF" d="M43.486,45.04l-1.537,2.854C42.564,46.985,43.079,46.032,43.486,45.04"/>
		<path fill="#FFFFFF" d="M44.709,44.89l-1.508,2.801C43.805,46.8,44.308,45.864,44.709,44.89"/>
		<path fill="#FFFFFF" d="M43.486,45.04l-1.537,2.854C42.564,46.985,43.079,46.032,43.486,45.04"/>
	</g>
</g>
</svg>
