<?xml version="1.0" encoding="UTF-8" standalone="no"?>
<svg width="146px" height="77px" viewBox="0 0 146 77" version="1.1" xmlns="http://www.w3.org/2000/svg" xmlns:xlink="http://www.w3.org/1999/xlink">
    <!-- Generator: Sketch 3.8.3 (29802) - http://www.bohemiancoding.com/sketch -->
    <title>Logotype v 2</title>
    <desc>Created with Sketch.</desc>
    <defs></defs>
    <g id="Köpflöde" stroke="none" stroke-width="1" fill="none" fill-rule="evenodd">
        <g id="Meny" transform="translate(-38.000000, -23.000000)" fill="#333399">
            <g id="Logotype-v-2" transform="translate(38.000000, 23.000000)">
                <polygon id="Fill-1" points="0 -0.000261016949 0 39.7878576 145.78121 -0.000261016949"></polygon>
                <path d="M13.1800897,47.1213898 L9.2667552,76.3370169 L16.8733238,74.2619322 L17.4615686,69.1120678 L27.5285463,66.3648644 L30.7055922,70.4902373 L38.4602046,68.3746949 L20.1525592,45.2198814 L13.1800897,47.1213898 Z M18.9577279,54.7274237 L23.8981981,61.3272373 L18.0445729,62.9233559 L18.9577279,54.7274237 Z" id="Fill-2"></path>
                <g id="Group-11" transform="translate(33.486719, 20.217981)">
                    <path d="M0.660825556,35.4377492 L0.639863604,35.3633593 C-1.44192032,27.7860373 2.77798277,20.2465627 10.681949,18.0918678 C16.0141457,16.6366983 20.0571823,17.9300373 23.2460194,20.4932237 L18.9566798,26.1742576 C16.9548134,24.7243085 14.9136432,24.0039017 12.4152405,24.6851559 C8.76131012,25.6822407 7.0358794,29.4656814 8.07742642,33.2556475 L8.09838837,33.3287322 C9.1700682,37.2296305 12.5790057,39.5735627 16.2329361,38.576478 C18.9553697,37.8338847 20.2117767,36.1346644 21.2572541,33.8129186 L27.7620101,36.1907831 C26.2304774,40.2417661 23.595822,43.6349864 17.8168737,45.2128339 C10.359659,47.2448508 2.79501436,43.2003932 0.660825556,35.4377492" id="Fill-3"></path>
                    <polygon id="Fill-5" points="33.2666188 19.2779288 25.4360194 21.4130475 23.7001077 15.0990475 46.5944903 8.85421695 48.3290919 15.1682169 40.4998026 17.3046407 45.9092965 36.9892339 38.6774228 38.962522"></polygon>
                    <polygon id="Fill-7" points="49.8844688 7.95710169 57.1556461 5.97337288 64.3010517 31.9732712 57.0298744 33.9556949"></polygon>
                    <path d="M64.0438747,18.1490305 L64.0229128,18.0746407 C61.9411289,10.4973186 66.1610319,2.95784407 74.0663083,0.801844068 C79.3971949,-0.652020339 83.4389214,0.640013559 86.6303787,3.20450508 L82.339729,8.88684407 C80.3378625,7.43558983 78.2966924,6.71518305 75.7982897,7.39643729 C72.1443593,8.39352203 70.4189286,12.1769627 71.4604756,15.9669288 L71.4801274,16.0400136 C72.5518073,19.9409119 75.9620549,22.2848441 79.6172954,21.2877593 C82.3371088,20.5451661 83.5948259,18.8446407 84.6389932,16.5242 L91.1450592,18.9020644 C89.6135266,22.9530475 86.9788711,26.3462678 81.1999228,27.9228102 C73.7427082,29.9574373 66.1780635,25.9116746 64.0438747,18.1490305" id="Fill-9"></path>
                </g>
            </g>
        </g>
    </g>
</svg>