<?xml version="1.0" encoding="utf-8"?>
<!-- Generator: Adobe Illustrator 19.2.0, SVG Export Plug-In . SVG Version: 6.00 Build 0)  -->
<!DOCTYPE svg PUBLIC "-//W3C//DTD SVG 1.1//EN" "http://www.w3.org/Graphics/SVG/1.1/DTD/svg11.dtd">
<svg version="1.1" id="Layer_1" xmlns="http://www.w3.org/2000/svg" xmlns:xlink="http://www.w3.org/1999/xlink" x="0px" y="0px"
	 viewBox="0 0 50 36" enable-background="new 0 0 50 36" xml:space="preserve">
<path fill="#565656" d="M47.62,14.67L36.33,3.38c-1.84-1.84-4.82-1.84-6.66,0c-1.84,1.84-1.84,4.82,0,6.65l3.26,3.26H5.71
	C3.11,13.29,1,15.4,1,18c0,2.6,2.11,4.71,4.71,4.71h27.23l-3.26,3.26c-1.84,1.84-1.84,4.82,0,6.65C30.59,33.54,31.8,34,33,34
	c1.2,0,2.41-0.46,3.33-1.38l11.29-11.29C49.46,19.49,49.46,16.51,47.62,14.67z"/>
</svg>
