<?xml version="1.0" encoding="utf-8"?>
<!-- Generator: Adobe Illustrator 19.2.0, SVG Export Plug-In . SVG Version: 6.00 Build 0)  -->
<!DOCTYPE svg PUBLIC "-//W3C//DTD SVG 1.1//EN" "http://www.w3.org/Graphics/SVG/1.1/DTD/svg11.dtd">
<svg version="1.1" id="Layer_1" xmlns="http://www.w3.org/2000/svg" xmlns:xlink="http://www.w3.org/1999/xlink" x="0px" y="0px"
	 viewBox="0 0 75 75" enable-background="new 0 0 75 75" xml:space="preserve">
<g>
	
		<polygon fill="none" stroke="#EC6602" stroke-width="3" stroke-linecap="round" stroke-linejoin="round" stroke-miterlimit="22.9256" points="
		1.52,10.33 73.53,10.33 73.53,69.5 1.52,69.5 1.52,10.33 	"/>
	
		<line fill="none" stroke="#EC6602" stroke-width="3" stroke-linecap="round" stroke-linejoin="round" stroke-miterlimit="22.9256" x1="15.6" y1="5.5" x2="15.6" y2="15.58"/>
	
		<line fill="none" stroke="#EC6602" stroke-width="3" stroke-linecap="round" stroke-linejoin="round" stroke-miterlimit="22.9256" x1="30.21" y1="5.5" x2="30.21" y2="15.58"/>
	
		<line fill="none" stroke="#EC6602" stroke-width="3" stroke-linecap="round" stroke-linejoin="round" stroke-miterlimit="22.9256" x1="44.83" y1="5.5" x2="44.83" y2="15.58"/>
	
		<line fill="none" stroke="#EC6602" stroke-width="3" stroke-linecap="round" stroke-linejoin="round" stroke-miterlimit="22.9256" x1="59.45" y1="5.5" x2="59.45" y2="15.58"/>
	
		<line fill="none" stroke="#EC6602" stroke-width="3" stroke-linecap="round" stroke-linejoin="round" stroke-miterlimit="22.9256" x1="14.44" y1="29.05" x2="14.44" y2="31.59"/>
	
		<line fill="none" stroke="#EC6602" stroke-width="3" stroke-linecap="round" stroke-linejoin="round" stroke-miterlimit="22.9256" x1="26" y1="29.05" x2="26" y2="31.59"/>
	
		<line fill="none" stroke="#EC6602" stroke-width="3" stroke-linecap="round" stroke-linejoin="round" stroke-miterlimit="22.9256" x1="37.56" y1="29.05" x2="37.56" y2="31.59"/>
	
		<line fill="none" stroke="#EC6602" stroke-width="3" stroke-linecap="round" stroke-linejoin="round" stroke-miterlimit="22.9256" x1="49.11" y1="29.05" x2="49.11" y2="31.59"/>
	
		<line fill="none" stroke="#EC6602" stroke-width="3" stroke-linecap="round" stroke-linejoin="round" stroke-miterlimit="22.9256" x1="14.44" y1="54.6" x2="14.44" y2="57.17"/>
	
		<line fill="none" stroke="#EC6602" stroke-width="3" stroke-linecap="round" stroke-linejoin="round" stroke-miterlimit="22.9256" x1="26" y1="54.6" x2="26" y2="57.17"/>
	
		<line fill="none" stroke="#EC6602" stroke-width="3" stroke-linecap="round" stroke-linejoin="round" stroke-miterlimit="22.9256" x1="37.56" y1="54.6" x2="37.56" y2="57.17"/>
	
		<line fill="none" stroke="#EC6602" stroke-width="3" stroke-linecap="round" stroke-linejoin="round" stroke-miterlimit="22.9256" x1="60.61" y1="29.01" x2="60.61" y2="31.55"/>
	
		<line fill="none" stroke="#EC6602" stroke-width="3" stroke-linecap="round" stroke-linejoin="round" stroke-miterlimit="22.9256" x1="14.44" y1="41.82" x2="14.44" y2="44.39"/>
	
		<path fill="none" stroke="#EC6602" stroke-width="3" stroke-linecap="round" stroke-linejoin="round" stroke-miterlimit="22.9256" d="
		M46.45,38.56h5.03c1.16,0,2.1,0.94,2.1,2.1v5.01c0,1.16-0.94,2.1-2.1,2.1h-5.03c-1.16,0-2.1-0.94-2.1-2.1v-5.01
		C44.35,39.51,45.3,38.56,46.45,38.56L46.45,38.56z"/>
	
		<line fill="none" stroke="#EC6602" stroke-width="3" stroke-linecap="round" stroke-linejoin="round" stroke-miterlimit="22.9256" x1="60.61" y1="41.82" x2="60.61" y2="44.39"/>
	
		<line fill="none" stroke="#EC6602" stroke-width="3" stroke-linecap="round" stroke-linejoin="round" stroke-miterlimit="22.9256" x1="37.49" y1="41.82" x2="37.49" y2="44.39"/>
	
		<line fill="none" stroke="#EC6602" stroke-width="3" stroke-linecap="round" stroke-linejoin="round" stroke-miterlimit="22.9256" x1="25.93" y1="41.82" x2="25.93" y2="44.39"/>
</g>
</svg>
