<?xml version="1.0" encoding="utf-8"?>
<!-- Generator: Adobe Illustrator 19.2.0, SVG Export Plug-In . SVG Version: 6.00 Build 0)  -->
<!DOCTYPE svg PUBLIC "-//W3C//DTD SVG 1.1//EN" "http://www.w3.org/Graphics/SVG/1.1/DTD/svg11.dtd">
<svg version="1.1" id="Layer_1" xmlns="http://www.w3.org/2000/svg" xmlns:xlink="http://www.w3.org/1999/xlink" x="0px" y="0px"
	 viewBox="0 0 75 75" enable-background="new 0 0 75 75" xml:space="preserve">
<g>
	
		<path fill="none" stroke="#EC6602" stroke-width="3" stroke-linecap="round" stroke-linejoin="round" stroke-miterlimit="22.9256" d="
		M64.19,42.09H41.31c-2.34,0-4.25,1.24-4.25,3.47v1.46c0,2.23,1.93,3.46,4.25,3.46h22.88c2.32,0,4.25-1.22,4.25-3.46v-1.46
		C68.44,43.31,66.52,42.09,64.19,42.09L64.19,42.09z"/>
	
		<path fill="none" stroke="#EC6602" stroke-width="3" stroke-linecap="round" stroke-linejoin="round" stroke-miterlimit="22.9256" d="
		M60.32,51.19H41.31c-2.34,0-4.25,1.34-4.25,3.57v1.46c0,2.23,1.93,3.57,4.25,3.57h19.01c2.33,0,4.25-1.32,4.25-3.57v-1.46
		C64.57,52.51,62.66,51.19,60.32,51.19L60.32,51.19z"/>
	
		<path fill="none" stroke="#EC6602" stroke-width="3" stroke-linecap="round" stroke-linejoin="round" stroke-miterlimit="22.9256" d="
		M55.82,60.49H41.31c-2.34,0-4.25,1.34-4.25,3.57v1.46c0,2.23,1.93,3.57,4.25,3.57h14.51c2.32,0,4.25-1.32,4.25-3.57v-1.46
		C60.08,61.81,58.16,60.49,55.82,60.49L55.82,60.49z"/>
	
		<path fill="none" stroke="#EC6602" stroke-width="3" stroke-linecap="round" stroke-linejoin="round" stroke-miterlimit="22.9256" d="
		M41.06,31.77c5.87-9.6,6.03-13.16,3.68-18.89c-4.58-11.16-11.69-7.09-10.9-4.29c1.26,4.5,1.49,8.05,0.99,10.93
		C31.85,36.5,6.64,29.19,7.94,51.08l0.33,5.55C8.7,63.85,16.31,69.5,21.89,69.5h13.15c1.47,0,2.88-0.3,4.14-0.85"/>
	
		<path fill="none" stroke="#EC6602" stroke-width="3" stroke-linecap="round" stroke-linejoin="round" stroke-miterlimit="22.9256" d="
		M59.52,32.79H43.08c-2.34,0-4.36,1.24-4.36,3.46v1.46c0,2.23,1.93,3.46,4.25,3.46h16.55c2.33,0,4.25-1.21,4.25-3.46v-1.46
		C63.77,34.01,61.85,32.79,59.52,32.79L59.52,32.79z"/>
</g>
</svg>
