<?xml version="1.0" encoding="utf-8"?>
<!-- Generator: Adobe Illustrator 19.2.0, SVG Export Plug-In . SVG Version: 6.00 Build 0)  -->
<!DOCTYPE svg PUBLIC "-//W3C//DTD SVG 1.1//EN" "http://www.w3.org/Graphics/SVG/1.1/DTD/svg11.dtd">
<svg version="1.1" id="Layer_1" xmlns="http://www.w3.org/2000/svg" xmlns:xlink="http://www.w3.org/1999/xlink" x="0px" y="0px"
	 viewBox="0 0 75 75" enable-background="new 0 0 75 75" xml:space="preserve">
<g>
	
		<line fill="none" stroke="#EC6602" stroke-width="3" stroke-linecap="round" stroke-linejoin="round" stroke-miterlimit="22.9256" x1="21.5" y1="63" x2="21.5" y2="69"/>
	
		<line fill="none" stroke="#EC6602" stroke-width="3" stroke-linecap="round" stroke-linejoin="round" stroke-miterlimit="22.9256" x1="51.5" y1="63" x2="51.5" y2="69"/>
	<g>
		
			<path fill="none" stroke="#EC6602" stroke-width="2.7142" stroke-linecap="round" stroke-linejoin="round" stroke-miterlimit="22.9256" d="
			M33.62,36.98c0.12,1.46-0.2,3.39-1.58,4.96c-0.14,0.16-0.3,0.32-0.48,0.47c0,0,1.98,4.02,6.3,4.02c4.47,0,6.8-3.85,6.8-3.85
			c-0.26-0.2-0.5-0.41-0.71-0.64c-1.21-1.35-1.47-3.46-1.36-4.97"/>
		
			<path fill="none" stroke="#EC6602" stroke-width="2.7142" stroke-linecap="round" stroke-linejoin="round" stroke-miterlimit="22.9256" d="
			M31.56,42.41l-5.55,2.05C15.99,48.19,8.98,58.26,11.81,70h52.37c2.38-12.5-5.3-23.62-19.52-27.42"/>
		
			<path fill="none" stroke="#EC6602" stroke-width="2.7142" stroke-linecap="round" stroke-linejoin="round" stroke-miterlimit="22.9256" d="
			M34.5,17.38c2.56,0,8.67-0.45,10.41-3.03c1.94,2,3.48,8.08,3.48,11.27c0,6.06-4.29,12.53-9.7,12.53c-5.41,0-9.79-4.91-9.79-10.96
			C28.91,21.13,29.1,17.38,34.5,17.38L34.5,17.38z"/>
		
			<path fill="none" stroke="#EC6602" stroke-width="2.7142" stroke-linecap="round" stroke-linejoin="round" stroke-miterlimit="22.9256" d="
			M54.5,45.57c3.43-3.99,0.98-8.24,0.98-14.59c0-12.06-0.31-25.76-17.14-24.95c-16.83,0.81-17.3,9.78-17.3,21.84
			c0,7.58,0.13,13.34,2.6,16.58"/>
	</g>
	<g>
		<path fill="#EC6602" d="M28.27,53.15c0-0.64,0.34-0.97,0.97-0.97h4.27c2.45,0,4.11,1.8,4.11,4.34c0,2.54-1.66,4.38-4.11,4.38
			h-2.15v2.93c0,0.64-0.34,0.97-0.97,0.97h-1.15c-0.64,0-0.97-0.34-0.97-0.97V53.15z M32.88,58.25c1.08,0,1.61-0.72,1.61-1.73
			s-0.53-1.69-1.55-1.69h-1.57v3.42H32.88z"/>
		<path fill="#EC6602" d="M42.22,54.82h-2.86c-0.64,0-0.97-0.34-0.97-0.97v-0.71c0-0.64,0.34-0.97,0.97-0.97h8.81
			c0.64,0,0.97,0.34,0.97,0.97v0.71c0,0.64-0.34,0.97-0.97,0.97h-2.86v9c0,0.64-0.34,0.97-0.97,0.97h-1.15
			c-0.64,0-0.97-0.34-0.97-0.97V54.82z"/>
	</g>
</g>
</svg>
