<?xml version="1.0" encoding="utf-8"?>
<!-- Generator: Adobe Illustrator 19.2.0, SVG Export Plug-In . SVG Version: 6.00 Build 0)  -->
<!DOCTYPE svg PUBLIC "-//W3C//DTD SVG 1.1//EN" "http://www.w3.org/Graphics/SVG/1.1/DTD/svg11.dtd">
<svg version="1.1" id="Layer_1" xmlns="http://www.w3.org/2000/svg" xmlns:xlink="http://www.w3.org/1999/xlink" x="0px" y="0px"
	 viewBox="0 0 75 75" enable-background="new 0 0 75 75" xml:space="preserve">
<g>
	
		<path fill="none" stroke="#EC6602" stroke-width="3" stroke-linecap="round" stroke-linejoin="round" stroke-miterlimit="22.9256" d="
		M14.02,37.64c0.18-11.63,8.42-21.91,22.01-15.45c2.51,1.2,4.43,2.45,5.83,2.45c1.4,0,3.32-1.26,5.83-2.45
		c17.5-8.33,26.18,11.21,20.08,25.44c-1.96,4.58-4.25,9.06-7.33,12.9c-9.02,11.25-27.96,11.24-37.12,0.12
		c-0.56-0.68-1.1-1.39-1.61-2.11"/>
	
		<path fill="none" stroke="#EC6602" stroke-width="3" stroke-linecap="round" stroke-linejoin="round" stroke-miterlimit="22.9256" d="
		M64.29,38c0.19,2.99-0.3,6.13-1.53,9c-1.58,3.7-3.43,7.31-5.91,10.41c-3.64,4.54-9.28,6.81-14.94,6.82"/>
	
		<path fill="none" stroke="#EC6602" stroke-width="3" stroke-linecap="round" stroke-linejoin="round" stroke-miterlimit="22.9256" d="
		M34.7,6.27c5.69,4.01,7.19,12.58,7.16,18.38"/>
	
		<path fill="none" stroke="#EC6602" stroke-width="3" stroke-linecap="round" stroke-linejoin="round" stroke-miterlimit="22.9256" d="
		M62.66,9.61c-2.68,3.55-6.87,5.92-11.67,6.09c-4.5,0.17-8.61-1.63-11.53-4.61C42.15,7.54,46.34,5.17,51.13,5
		C55.63,4.83,59.75,6.62,62.66,9.61L62.66,9.61z"/>
	
		<line fill="none" stroke="#EC6602" stroke-width="3" stroke-linecap="round" stroke-linejoin="round" stroke-miterlimit="22.9256" x1="10.49" y1="25.98" x2="17.17" y2="25.98"/>
	
		<line fill="none" stroke="#EC6602" stroke-width="3" stroke-linecap="round" stroke-linejoin="round" stroke-miterlimit="22.9256" x1="3.37" y1="32.6" x2="3.37" y2="52.47"/>
	
		<path fill="none" stroke="#EC6602" stroke-width="3" stroke-linecap="round" stroke-linejoin="round" stroke-miterlimit="22.9256" d="
		M3.29,52.5L3.29,52.5c0,3.96,3.24,6.09,7.2,6.09h27.64V37.61H10.49c-3.96,0-7.2-2.13-7.2-6.09l0,0c0-3.96,3.24-5.54,7.2-5.54"/>
	
		<line fill="none" stroke="#EC6602" stroke-width="3" stroke-linecap="round" stroke-linejoin="round" stroke-miterlimit="22.9256" x1="29.44" y1="38.13" x2="29.44" y2="48.88"/>
	
		<line fill="none" stroke="#EC6602" stroke-width="3" stroke-linecap="round" stroke-linejoin="round" stroke-miterlimit="22.9256" x1="20.75" y1="38.13" x2="20.75" y2="52.3"/>
	
		<line fill="none" stroke="#EC6602" stroke-width="3" stroke-linecap="round" stroke-linejoin="round" stroke-miterlimit="22.9256" x1="12.06" y1="38.13" x2="12.06" y2="48.88"/>
</g>
</svg>
